# xmcd CD database file
#
# Track frame offsets:
#	150
#	15550
#	28082
#	43837
#	60715
#	77830
#	90275
#	104735
#	122255
#	135250
#	149227
#	165794
#	181667
#	201532
#	214924
#	236819
#	254787
#	275687
#	292119
#	307514
#
# Disc length: 4352 seconds
#
# Revision: 0
# Processed by: cddbd v1.5.2PL0 Copyright (c) Steve Scherf et al.
# Submitted via: CDex 1.70beta2
#
DISCID=2410fe14
DTITLE=The Fabulous Thunderbirds - Tuff Enuff - Hot Number
DYEAR=2007
DGENRE=Blues
TTITLE0=Tuff Enuff
TTITLE1=Tell Me
TTITLE2=Look At That, Look At That
TTITLE3=Two Time My Lovin
TTITLE4=Amnesia
TTITLE5=Wrap It Up
TTITLE6=True Love
TTITLE7=Why Get Up
TTITLE8=I Don't Care
TTITLE9=Down At Antones
TTITLE10=Stand Back
TTITLE11=Hot Number
TTITLE12=Wasted Tears
TTITLE13=It Comes To Me Naturally
TTITLE14=Love In Common
TTITLE15=How Do You Spell Love
TTITLE16=Streets Of Gold
TTITLE17=Sofa Circuit
TTITLE18=Don't Bother Tryin' To Steal Her Love
TTITLE19=It Takes A Big Man To Cry
EXTD=YEAR: 2007
EXTT0=
EXTT1=
EXTT2=
EXTT3=
EXTT4=
EXTT5=
EXTT6=
EXTT7=
EXTT8=
EXTT9=
EXTT10=
EXTT11=
EXTT12=
EXTT13=
EXTT14=
EXTT15=
EXTT16=
EXTT17=
EXTT18=
EXTT19=
PLAYORDER=
